<?xml version="1.0" encoding="utf-8"?>
<svg viewBox="0 0 500 500" xmlns="http://www.w3.org/2000/svg">
  <path fill="#3aa9e2" d="M 247.391 88.405 C 247.391 88.405 247.392 252.232 247.392 252.234 C 247.392 252.234 126.852 170.262 126.855 170.318 C 126.852 170.262 247.391 88.405 247.391 88.405 Z" style="" transform="matrix(1, 0, 0, 1, 7.105427357601002e-15, 7.105427357601002e-15)"/>
  <path fill="#2d99d4" d="M 247.391 252.234 C 247.391 252.234 246.902 88.333 247.391 88.405 C 247.391 88.405 367.79 170.262 367.79 170.262 C 367.79 170.262 247.391 252.341 247.391 252.234 Z" style="" transform="matrix(1, 0, 0, 1, 7.105427357601002e-15, 7.105427357601002e-15)"/>
  <path fill="#535b77" d="M 367.79 170.262 C 367.79 170.262 488.243 252.234 488.243 252.234 L 367.781 333.793 C 367.781 333.816 367.79 170.262 367.79 170.262 Z" style="" transform="matrix(1, 0, 0, 1, 7.105427357601002e-15, 7.105427357601002e-15)"/>
  <path fill="#5f69a2" d="M 126.855 170.318 L 126.854 333.845 C 126.854 333.845 6.375 252.245 6.36 252.234 L 126.855 170.318 Z" style="" transform="matrix(1, 0, 0, 1, 7.105427357601002e-15, 7.105427357601002e-15)"/>
  <path fill="#de4632" d="M 247.391 252.236 C 247.392 252.251 367.827 333.866 367.781 333.793 C 367.846 333.826 247.391 415.502 247.391 415.502 C 247.391 415.502 247.391 252.23 247.391 252.236 Z" style="" transform="matrix(1, 0, 0, 1, 7.105427357601002e-15, 7.105427357601002e-15)"/>
  <path fill="#ed6e2f" d="M 247.391 252.236 C 247.391 252.236 126.854 333.845 126.854 333.845 L 247.391 415.502 L 247.391 252.236 Z" style="" transform="matrix(1, 0, 0, 1, 7.105427357601002e-15, 7.105427357601002e-15)"/>
  <path fill="#f09d30" d="M 488.243 252.234 C 488.243 252.234 487.62 357.282 487.637 409.133 C 487.651 422.776 485.047 434.837 479.821 445.313 C 470.337 464.329 452.559 480.089 431.662 487.779 C 414.185 494.212 395.346 494.69 375.138 489.206 C 368.656 487.451 356.375 480.816 338.298 469.301 C 307.844 449.935 247.391 415.502 247.391 415.502 L 488.243 252.234 Z" style="" transform="matrix(1, 0, 0, 1, 7.105427357601002e-15, 7.105427357601002e-15)"/>
  <path fill="#de4632" d="M 6.397 394.378 C 6.315 346.676 6.392 252.234 6.392 252.234 C 6.392 252.234 247.391 415.502 247.391 415.502 C 247.391 415.502 151.326 471.679 132.901 482.504 C 120.2 489.958 105.398 493.439 88.499 492.944 C 74.779 492.537 60.727 488.231 46.34 480.022 C 27.548 469.318 15.149 452.976 9.139 430.999 C 6.015 419.634 6.421 406.645 6.397 394.378 Z" style="" transform="matrix(1, 0, 0, 1, 7.105427357601002e-15, 7.105427357601002e-15)"/>
  <path d="M 487.848 109.508 C 488.067 157.507 488.243 252.235 488.243 252.235 C 488.243 252.235 247.39 88.404 247.39 88.404 C 247.39 88.404 344.016 32.138 362.241 21.194 C 374.805 13.657 389.462 10.111 406.208 10.561 C 419.804 10.93 433.741 15.224 448.021 23.443 C 466.672 34.16 479.005 50.568 485.025 72.665 C 488.154 84.092 487.789 97.164 487.848 109.508 Z" style="fill: rgb(95, 105, 162);" transform="matrix(1, 0, 0, 1, 7.105427357601002e-15, 7.105427357601002e-15)"/>
  <path d="M 247.472 10.752 C 247.472 10.752 246.391 116.296 246.408 168.147 C 246.422 181.79 243.818 193.851 238.592 204.327 C 229.108 223.343 211.33 239.103 190.433 246.793 C 172.956 253.226 154.117 253.704 133.909 248.22 C 127.427 246.465 115.146 239.83 97.069 228.315 C 66.615 208.949 6.131 174.122 6.131 174.122 L 247.472 10.752 Z" style="fill: rgb(38, 154, 116);" transform="matrix(-0.999998, 0.001897, -0.001897, -0.999998, 253.852959, 262.515189)"/>
</svg>